<?xml version="1.0" standalone="no"?><!DOCTYPE svg PUBLIC "-//W3C//DTD SVG 1.1//EN" "http://www.w3.org/Graphics/SVG/1.1/DTD/svg11.dtd"><svg t="1653139434598" class="icon" viewBox="0 0 1024 1024" version="1.1" xmlns="http://www.w3.org/2000/svg" p-id="8301" xmlns:xlink="http://www.w3.org/1999/xlink" width="200" height="200"><defs><style type="text/css">@font-face { font-family: feedback-iconfont; src: url("//at.alicdn.com/t/font_1031158_u69w8yhxdu.woff2?t=1630033759944") format("woff2"), url("//at.alicdn.com/t/font_1031158_u69w8yhxdu.woff?t=1630033759944") format("woff"), url("//at.alicdn.com/t/font_1031158_u69w8yhxdu.ttf?t=1630033759944") format("truetype"); }
</style></defs><path d="M693.1968 935.8848H235.7248c-73.5232 0-133.12-59.5968-133.12-133.12V217.4976c0-73.5232 59.5968-133.12 133.12-133.12h457.472c73.5232 0 133.12 59.5968 133.12 133.12v585.2672c0 73.5232-59.5968 133.12-133.12 133.12z" fill="#F85F69" p-id="8302"></path><path d="M628.4288 326.0416h-325.12c-22.6304 0-40.96-18.3296-40.96-40.96s18.3296-40.96 40.96-40.96h325.12c22.6304 0 40.96 18.3296 40.96 40.96s-18.3296 40.96-40.96 40.96zM628.4288 488.448h-325.12c-22.6304 0-40.96-18.3296-40.96-40.96s18.3296-40.96 40.96-40.96h325.12c22.6304 0 40.96 18.3296 40.96 40.96s-18.3296 40.96-40.96 40.96zM459.008 650.8544h-155.648c-22.6304 0-40.96-18.3296-40.96-40.96s18.3296-40.96 40.96-40.96h155.6992c22.6304 0 40.96 18.3296 40.96 40.96s-18.3808 40.96-41.0112 40.96z" fill="#FFFFFF" p-id="8303"></path><path d="M738.9696 742.5024m-189.952 0a189.952 189.952 0 1 0 379.904 0 189.952 189.952 0 1 0-379.904 0Z" fill="#F498A6" p-id="8304"></path><path d="M739.2256 552.8064c-104.9088 0-189.952 85.0432-189.952 189.952 0 99.9936 77.2608 181.8624 175.36 189.3376 58.368-14.08 101.7856-66.6624 101.7856-129.3824V573.952a190.21312 190.21312 0 0 0-87.1936-21.1456z" fill="#F33B3D" p-id="8305"></path><path d="M668.2112 849.1008c-9.1648 0-18.3296-3.4816-25.344-10.496a35.87584 35.87584 0 0 1 0-50.688l141.5168-141.5168a35.87584 35.87584 0 0 1 50.688 0 35.87584 35.87584 0 0 1 0 50.688l-141.5168 141.5168a35.70176 35.70176 0 0 1-25.344 10.496z" fill="#FFFFFF" p-id="8306"></path><path d="M809.728 849.1008c-9.1648 0-18.3296-3.4816-25.344-10.496l-141.5168-141.5168a35.87584 35.87584 0 0 1 0-50.688 35.87584 35.87584 0 0 1 50.688 0l141.5168 141.5168a35.87584 35.87584 0 0 1 0 50.688 35.70176 35.70176 0 0 1-25.344 10.496z" fill="#FFFFFF" p-id="8307"></path></svg>