<?xml version="1.0" standalone="no"?><!DOCTYPE svg PUBLIC "-//W3C//DTD SVG 1.1//EN" "http://www.w3.org/Graphics/SVG/1.1/DTD/svg11.dtd"><svg t="1653372259431" class="icon" viewBox="0 0 1024 1024" version="1.1" xmlns="http://www.w3.org/2000/svg" p-id="15306" xmlns:xlink="http://www.w3.org/1999/xlink" width="200" height="200"><defs><style type="text/css">@font-face { font-family: feedback-iconfont; src: url("//at.alicdn.com/t/font_1031158_u69w8yhxdu.woff2?t=1630033759944") format("woff2"), url("//at.alicdn.com/t/font_1031158_u69w8yhxdu.woff?t=1630033759944") format("woff"), url("//at.alicdn.com/t/font_1031158_u69w8yhxdu.ttf?t=1630033759944") format("truetype"); }
</style></defs><path d="M883.1 453.9L866 436.8c-28.3-28.3-74.3-28.3-102.6 0l-5.6 5.6-185.1-185.1 5.6-5.6c13.7-13.7 21.2-31.9 21.2-51.3s-7.5-37.6-21.3-51.3l-17-17.1c-13.7-13.7-31.9-21.2-51.3-21.2s-37.6 7.5-51.3 21.2L311.5 279c-13.7 13.7-21.2 31.9-21.2 51.3s7.5 37.6 21.2 51.3l17.1 17.1c13.7 13.7 31.9 21.3 51.3 21.3s37.6-7.5 51.3-21.2l5.6-5.6 38.6 38.6-314 273.5-0.5 0.5c-25.4 23.4-40.4 55.9-41.1 89.1-0.6 30.3 10.4 58.4 31.1 79.1 20.1 20.1 47.3 31.2 76.7 31.2h2.4c33.3-0.7 65.8-15.7 89.1-41.1L593 549.4l28.9 28.9-5.6 5.6c-28.3 28.3-28.3 74.3 0 102.6l17.1 17.1c14.1 14.1 32.7 21.2 51.3 21.2 18.6 0 37.2-7.1 51.3-21.2l147.1-147.1c28.3-28.3 28.3-74.3 0-102.6zM379.9 370c-6 0-11.7-2.3-16-6.6l-17.1-17.1c-4.3-4.3-6.6-9.9-6.6-15.9s2.3-11.7 6.6-15.9l147.1-147.1c4.3-4.3 9.9-6.6 15.9-6.6s11.7 2.3 15.9 6.6l17.1 17.1c4.3 4.3 6.6 9.9 6.6 16 0 6-2.3 11.7-6.6 15.9l-146.9 147c-4.3 4.3-10 6.6-16 6.6z m177.7 144L282.1 830.4c-14.2 15.3-33.5 24.3-53.2 24.7-16.6 0.4-31.7-5.5-42.7-16.5-11-11-16.8-26.1-16.5-42.7 0.4-19.6 9.4-39 24.7-53.2l316.4-275.5 46.8 46.8z m-85.5-156.1l65.2-65.2 185.1 185.1-65.2 65.2-185.1-185.1z m375.6 163.2l-147 147.1c-8.8 8.8-23.1 8.8-31.9 0l-17.1-17.1c-8.8-8.8-8.8-23.1 0-31.9l147.1-147.1a22.5 22.5 0 0 1 15.9-6.6c5.8 0 11.5 2.2 15.9 6.6l17.1 17.1c8.8 8.8 8.8 23.2 0 31.9zM845.5 830.7c-12.5-24.1-37.1-39-64.3-39H612.9c-27.1 0-51.8 15-64.3 39L534 858.8c-6.1 11.7-5.6 25.3 1.2 36.5s18.7 17.9 31.9 17.9H827c13.1 0 25-6.7 31.9-17.9 6.8-11.2 7.3-24.9 1.2-36.5l-14.6-28.1z m-257.4 32.6l4.9-9.5c3.9-7.5 11.5-12.1 19.9-12.1h168.3c8.4 0 16 4.6 19.9 12.1l4.9 9.5H588.1z" p-id="15307"></path></svg>