<?xml version="1.0" standalone="no"?><!DOCTYPE svg PUBLIC "-//W3C//DTD SVG 1.1//EN" "http://www.w3.org/Graphics/SVG/1.1/DTD/svg11.dtd"><svg t="1653372085076" class="icon" viewBox="0 0 1024 1024" version="1.1" xmlns="http://www.w3.org/2000/svg" p-id="15114" xmlns:xlink="http://www.w3.org/1999/xlink" width="200" height="200"><defs><style type="text/css">@font-face { font-family: feedback-iconfont; src: url("//at.alicdn.com/t/font_1031158_u69w8yhxdu.woff2?t=1630033759944") format("woff2"), url("//at.alicdn.com/t/font_1031158_u69w8yhxdu.woff?t=1630033759944") format("woff"), url("//at.alicdn.com/t/font_1031158_u69w8yhxdu.ttf?t=1630033759944") format("truetype"); }
</style></defs><path d="M348.416 184.96c11.872 0 21.504 9.6 21.504 21.504v32.032H277.76a7.68 7.68 0 0 0-7.488 5.888l-0.192 1.76v581.248a7.68 7.68 0 0 0 5.92 7.456l1.76 0.192h491.52a7.68 7.68 0 0 0 7.488-5.888l0.192-1.76V246.144a7.68 7.68 0 0 0-5.92-7.456l-1.76-0.192h-92.16v-32c0-10.816 7.968-19.776 18.336-21.312l3.168-0.224h70.656c33.92 0 61.44 27.392 61.44 61.184v581.248c0 33.792-27.52 61.184-61.44 61.184H277.76c-33.92 0-61.44-27.392-61.44-61.184V246.144c0-33.792 27.52-61.184 61.44-61.184h70.656zM414.944 480a8 8 0 0 1 8 8v188a28 28 0 0 1-28 28h-20a8 8 0 0 1-8-8v-188c0-15.456 12.512-28 28-28h20z m256 64a8 8 0 0 1 8 8v124a28 28 0 0 1-28 28h-20a8 8 0 0 1-8-8v-124c0-15.456 12.512-28 28-28h20z m-148-160c14.272 0 26.048 10.688 27.776 24.48l0.224 3.52v284a8 8 0 0 1-6.176 7.776l-1.824 0.224h-20a28 28 0 0 1-27.808-24.48l-0.192-3.52V392a8 8 0 0 1 6.144-7.776l1.856-0.224h20z m62.016-222.144c16.96 0 30.72 13.76 30.72 30.72v39.776a6.144 6.144 0 0 1-6.144 6.144h-172.032a6.144 6.144 0 0 1-6.144-6.144V192.576c0-16.96 13.76-30.72 30.72-30.72h122.88z" p-id="15115"></path></svg>