<?xml version="1.0" standalone="no"?><!DOCTYPE svg PUBLIC "-//W3C//DTD SVG 1.1//EN" "http://www.w3.org/Graphics/SVG/1.1/DTD/svg11.dtd"><svg t="1650898280456" class="icon" viewBox="0 0 1024 1024" version="1.1" xmlns="http://www.w3.org/2000/svg" p-id="14565" xmlns:xlink="http://www.w3.org/1999/xlink" width="200" height="200"><defs><style type="text/css">@font-face { font-family: feedback-iconfont; src: url("//at.alicdn.com/t/font_1031158_u69w8yhxdu.woff2?t=1630033759944") format("woff2"), url("//at.alicdn.com/t/font_1031158_u69w8yhxdu.woff?t=1630033759944") format("woff"), url("//at.alicdn.com/t/font_1031158_u69w8yhxdu.ttf?t=1630033759944") format("truetype"); }
</style></defs><path d="M512.9 63.4C265.4 63.4 64.8 264 64.8 511.5 64.8 759 265.5 959.6 513 959.6c247.4 0 448-200.6 448-448.1C961 264 760.4 63.4 512.9 63.4zM737 560.9H499.1c-5 0-9.9-1-14.3-2.9-13.2-5.6-22.4-18.6-22.4-33.8V286.3c0-20.3 16.4-36.7 36.7-36.7 20.3 0 36.8 16.4 36.8 36.7v201.2h201.2c20.3 0 36.7 16.4 36.7 36.7 0 20.3-16.5 36.7-36.8 36.7z" fill="#459df5" p-id="14566"></path></svg>