<?xml version="1.0" standalone="no"?><!DOCTYPE svg PUBLIC "-//W3C//DTD SVG 1.1//EN" "http://www.w3.org/Graphics/SVG/1.1/DTD/svg11.dtd"><svg t="1652863698649" class="icon" viewBox="0 0 1024 1024" version="1.1" xmlns="http://www.w3.org/2000/svg" p-id="3597" xmlns:xlink="http://www.w3.org/1999/xlink" width="200" height="200"><defs><style type="text/css">@font-face { font-family: feedback-iconfont; src: url("//at.alicdn.com/t/font_1031158_u69w8yhxdu.woff2?t=1630033759944") format("woff2"), url("//at.alicdn.com/t/font_1031158_u69w8yhxdu.woff?t=1630033759944") format("woff"), url("//at.alicdn.com/t/font_1031158_u69w8yhxdu.ttf?t=1630033759944") format("truetype"); }
</style></defs><path d="M540.761858 508.458479m-250.003108 0a250.003108 250.003108 0 1 0 500.006216 0 250.003108 250.003108 0 1 0-500.006216 0Z" fill="#FFCB01" p-id="3598"></path><path d="M741.503008 690.715783l-0.849365 0.849364m-12.041922 9.104869l-11.946667 9.208062-4.080124 2.937054-1.992434 1.420899c-5.691535 4.548465-9.485891 9.104868-11.954605 14.320124-6.540899 14.129612-12.32769 23.147163-19.448062 30.069085-10.517829 10.430512-25.79845 15.455256-46.651534 15.455256H394.390822c-13.375504 0-32.815628-1.611411-46.762667-15.558449-6.826667-6.731411-13.089736-15.923597-19.725891-28.918078-2.460775-4.842171-5.882047-9.390636-10.24-13.756527A40.388465 40.388465 0 0 1 309.581395 709.679628l-1.127193-1.135132-13.280249-10.144744-7.112434-5.786791-39.554976-38.030883-1.135132-1.524094c-16.407814-20.765767-29.021271-39.73755-39.642295-58.987162a30.91845 30.91845 0 0 1-6.453581-10.716279c-3.699101-7.493457-7.112434-15.748961-10.430512-24.369613a31.339163 31.339163 0 0 1-5.977302-14.518573 479.15262 479.15262 0 0 1-8.628589-25.79845c-0.381023-0.94462-0.666791-1.88924-1.047814-2.937054l-1.135132-3.318078-0.381023-1.516155c-2.270264-9.581147-4.072186-20.392682-5.596279-32.148837v-0.103194c-0.658853-2.556031-1.706667-6.255132-1.889241-10.811535a515.651473 515.651473 0 0 1-1.333581-37.745116c0-46.754729 8.636527-90.953426 25.512682-131.357767 16.884093-40.213829 42.396775-77.577922 75.966512-111.155597 33.577674-33.577674 71.418047-59.082419 112.48124-75.966512 40.975876-16.788837 85.93662-25.322171 133.739163-25.322171 47.794605 0 92.747411 8.533333 133.818543 25.322171 41.071132 16.788837 79.094078 42.293581 113.052775 75.776 33.95076 33.482419 59.852403 70.941767 76.823814 111.250853 17.066667 40.309085 25.703194 84.603039 25.703193 131.548279 0 15.169488-0.571535 27.695628-1.905116 39.261271l-1.230387 10.628961-0.476279 2.175008-9.57321 51.882667c-1.135132 3.318078-2.754481 8.160248-3.794356 11.097302l-3.03231 7.017178-4.651659 9.581148c-3.508589 9.009612-9.573209 16.876155-13.280248 24.282294-1.325643 3.881674-6.06462 11.470388-8.811163 14.502698-5.794729 10.906791-8.064992 13.47076-13.097675 21.059473l-0.087317 0.190511a511.206202 511.206202 0 0 1-22.956652 31.386791l-1.047814 1.333582-2.079751 2.087689c-8.064992 9.287442-17.265116 17.733457-25.226915 24.750636l-1.801923 1.611411m-39.269209-47.231008c0.666791-0.476279 1.333581-0.952558 1.905116-1.333581 6.159876-5.493085 12.891287-11.851411 18.201799-18.019225l0.857302-0.952558 1.325643-1.317706a390.429767 390.429767 0 0 0 18.86859-25.893705c4.937426-7.398202 11.192558-17.161922 16.034728-27.314605l8.342822-17.352434h0.381023c1.611411-4.080124 3.326016-8.446016 5.12-13.097674l2.659225-6.731411 0.658853-0.563597c2.08769-5.691535 4.270636-12.240372 6.548837-19.352806 1.801922-5.874109 2.278202-7.858605 3.222822-12.518202l3.318077-19.53538c0.857302-5.215256 1.992434-11.859349 2.381396-14.320124 0.658853-8.064992 1.031938-16.979349 1.031938-27.600372 0-77.292155-28.449736-144.447504-84.499845-199.735566-56.050109-55.296-124.531101-83.269457-203.347349-83.269457-79.094078 0-147.194047 27.973457-202.386853 83.174202-55.581767 55.669085-83.745736 122.911752-83.745736 199.926077 0 10.430512 0.373085 21.34524 1.135131 32.529861 0.658853 2.278202 1.508217 5.413705 1.801923 9.208062 1.135132 8.715907 2.460775 16.685643 3.984868 23.702821l0.468341 1.516155 0.095256 0.381024 0.381023 0.762046 0.571535 1.801923c1.230388 3.889612 2.373457 7.676031 3.500651 11.192558l7.493458 19.630635c1.992434 5.215256 3.889612 10.049488 5.691535 14.510636l7.683969 14.891659c9.104868 17.542946 20.392682 34.712806 35.48279 54.057674l32.902946 32.434605 3.413333 2.182946 13.748589 10.525767 10.43845 7.779225c11.946667 10.621023 20.956279 22.004093 27.600372 34.998574l0.087318 0.095256c2.754481 5.397829 4.842171 8.811163 6.271008 10.811534 1.127194 0.087318 2.83386 0.190512 5.12 0.190512h238.23479c2.08769 0 3.699101-0.103194 4.842171-0.190512 1.14307-1.801922 2.841798-4.842171 5.12-9.771659 6.636155-14.320124 16.598326-26.46524 30.442171-37.268837l0.762046-0.571535 2.841798-1.992434 2.563969-1.905116 11.097303-8.525395m-307.573085 146.241488h264.890542c15.367938 0 26.46524 11.192558 26.46524 26.46524 0 15.367938-11.192558 26.457302-26.46524 26.457303h-264.890542c-15.367938 0-26.46524-11.192558-26.465241-26.457303 0-15.272682 11.287814-26.46524 26.465241-26.46524z m11.668837 82.134326h240.044651l-97.692775 49.691783a60.29693 60.29693 0 0 1-47.993055 0l-94.358821-49.691783z" p-id="3599"></path><path d="M641.357395 313.050295c28.163969 25.988961 42.206264 58.32831 42.206264 96.84341 0 13.177054 11.192558 26.457302 26.457302 26.457303 15.272682 0 26.46524-13.184992 26.465241-26.465241 0-57.471008-18.693953-103.003287-56.335876-137.327131-37.467287-34.339721-80.530853-51.406388-128.992248-51.406388-15.367938 0-26.457302 11.192558-26.457303 26.457302 0 15.367938 11.192558 26.560496 26.457303 26.560497 31.871008 0 62.027411 12.803969 90.199317 38.880248z" p-id="3600"></path></svg>