<?xml version="1.0" standalone="no"?><!DOCTYPE svg PUBLIC "-//W3C//DTD SVG 1.1//EN" "http://www.w3.org/Graphics/SVG/1.1/DTD/svg11.dtd"><svg t="1650780475325" class="icon" viewBox="0 0 1024 1024" version="1.1" xmlns="http://www.w3.org/2000/svg" p-id="3369" xmlns:xlink="http://www.w3.org/1999/xlink" width="200" height="200"><defs><style type="text/css">@font-face { font-family: feedback-iconfont; src: url("//at.alicdn.com/t/font_1031158_u69w8yhxdu.woff2?t=1630033759944") format("woff2"), url("//at.alicdn.com/t/font_1031158_u69w8yhxdu.woff?t=1630033759944") format("woff"), url("//at.alicdn.com/t/font_1031158_u69w8yhxdu.ttf?t=1630033759944") format("truetype"); }
</style></defs><path d="M926 215.173333l-384-170.666666a21.333333 21.333333 0 0 0-17.333333 0l-384 170.666666A21.333333 21.333333 0 0 0 128 234.666667v217.813333c0 219.866667 129.373333 419.02 329.6 507.333333 32.793333 14.466667 57.566667 21.5 75.733333 21.5s42.94-7.033333 75.733334-21.5c200.226667-88.333333 329.6-287.486667 329.6-507.333333V234.666667a21.333333 21.333333 0 0 0-12.666667-19.493334z m-206.913333 205.246667l-213.333334 213.333333a21.333333 21.333333 0 0 1-30.173333 0l-128-128a21.333333 21.333333 0 0 1 30.173333-30.173333L490.666667 588.5l198.246666-198.253333a21.333333 21.333333 0 1 1 30.173334 30.173333z" fill="#ffffff" p-id="3370"></path></svg>