<?xml version="1.0" standalone="no"?><!DOCTYPE svg PUBLIC "-//W3C//DTD SVG 1.1//EN" "http://www.w3.org/Graphics/SVG/1.1/DTD/svg11.dtd"><svg t="1650780057576" class="icon" viewBox="0 0 1024 1024" version="1.1" xmlns="http://www.w3.org/2000/svg" p-id="2316" xmlns:xlink="http://www.w3.org/1999/xlink" width="200" height="200"><defs><style type="text/css">@font-face { font-family: feedback-iconfont; src: url("//at.alicdn.com/t/font_1031158_u69w8yhxdu.woff2?t=1630033759944") format("woff2"), url("//at.alicdn.com/t/font_1031158_u69w8yhxdu.woff?t=1630033759944") format("woff"), url("//at.alicdn.com/t/font_1031158_u69w8yhxdu.ttf?t=1630033759944") format("truetype"); }
</style></defs><path d="M925.696 258.048c0-8.192-4.096-16.384-12.288-16.384l-393.216-155.648c-4.096 0-8.192 0-16.384 0L110.592 237.568C106.496 241.664 98.304 249.856 98.304 258.048c0 4.096-4.096 512 405.504 708.608 4.096 0 4.096 0 8.192 0s4.096 0 8.192 0C929.792 770.048 925.696 262.144 925.696 258.048zM512 925.696c-344.064-167.936-368.64-577.536-372.736-655.36L512 122.88l372.736 147.456C880.64 348.16 856.064 753.664 512 925.696z" p-id="2317"></path><path d="M344.064 495.616c-8.192-8.192-20.48-8.192-28.672 0-8.192 8.192-8.192 20.48 0 28.672l155.648 155.648c4.096 4.096 8.192 4.096 12.288 4.096 0 0 0 0 0 0 4.096 0 12.288-4.096 12.288-4.096l282.624-294.912c8.192-8.192 8.192-20.48 0-28.672-8.192-8.192-20.48-8.192-28.672 0l-270.336 278.528L344.064 495.616z" p-id="2318"></path></svg>