<?xml version="1.0" standalone="no"?><!DOCTYPE svg PUBLIC "-//W3C//DTD SVG 1.1//EN" "http://www.w3.org/Graphics/SVG/1.1/DTD/svg11.dtd"><svg t="1650897814964" class="icon" viewBox="0 0 1024 1024" version="1.1" xmlns="http://www.w3.org/2000/svg" p-id="13750" xmlns:xlink="http://www.w3.org/1999/xlink" width="200" height="200"><defs><style type="text/css">@font-face { font-family: feedback-iconfont; src: url("//at.alicdn.com/t/font_1031158_u69w8yhxdu.woff2?t=1630033759944") format("woff2"), url("//at.alicdn.com/t/font_1031158_u69w8yhxdu.woff?t=1630033759944") format("woff"), url("//at.alicdn.com/t/font_1031158_u69w8yhxdu.ttf?t=1630033759944") format("truetype"); }
</style></defs><path d="M849.92 642.96H174.08V381.04h675.84v261.92z m-655.36-20.48h634.88V401.52H194.56v220.96z" fill="#2ACACA" p-id="13751"></path><path d="M184.32 391.28v241.45h655.36V391.28H184.32z m171.35 202.45h-36.63V530.4h-50.7v63.33H231.3V439.75h37.04v58.57h50.7v-58.57h36.63v153.98z m122.52 0l-8.9-35.39h-45.53l-8.9 35.39h-37.67L425 439.75h44.29l47.81 153.98h-38.91z m108.03 2.9c-20.07 0-41.6-7.45-57.53-22.14l20.9-25.46c10.97 9.31 25.25 15.73 37.46 15.73 13.66 0 20.07-5.17 20.07-13.45 0-8.9-8.48-11.8-21.73-17.38l-19.66-8.28c-16.14-6.42-31.25-19.87-31.25-42.22 0-25.87 23.18-46.56 55.88-46.56 17.8 0 36.63 6.83 50.08 20.28l-18.42 23.18c-10.14-7.66-19.66-11.8-31.66-11.8-11.38 0-18.42 4.55-18.42 12.83 0 8.48 9.73 11.8 23.39 17.18l19.25 7.66c19.04 7.66 30.42 20.49 30.42 42.22-0.01 25.65-21.53 48.21-58.78 48.21z m213.99-2.9h-36.63V530.4h-50.7v63.33h-37.04V439.75h37.04v58.57h50.7v-58.57h36.63v153.98z" fill="#2ACACA" p-id="13752"></path><path d="M446.73 467.28h-0.83c-3.73 16.14-7.86 34.15-11.8 49.46l-3.31 13.04h31.46l-3.31-13.04c-4.14-15.31-8.07-33.73-12.21-49.46z" fill="#2ACACA" p-id="13753"></path></svg>