<?xml version="1.0" standalone="no"?><!DOCTYPE svg PUBLIC "-//W3C//DTD SVG 1.1//EN" "http://www.w3.org/Graphics/SVG/1.1/DTD/svg11.dtd"><svg t="1653140456676" class="icon" viewBox="0 0 1024 1024" version="1.1" xmlns="http://www.w3.org/2000/svg" p-id="17557" xmlns:xlink="http://www.w3.org/1999/xlink" width="200" height="200"><defs><style type="text/css">@font-face { font-family: feedback-iconfont; src: url("//at.alicdn.com/t/font_1031158_u69w8yhxdu.woff2?t=1630033759944") format("woff2"), url("//at.alicdn.com/t/font_1031158_u69w8yhxdu.woff?t=1630033759944") format("woff"), url("//at.alicdn.com/t/font_1031158_u69w8yhxdu.ttf?t=1630033759944") format("truetype"); }
</style></defs><path d="M694.1184 935.8848H236.6464c-73.5232 0-133.12-59.5968-133.12-133.12V217.4976c0-73.5232 59.5968-133.12 133.12-133.12h457.472c73.5232 0 133.12 59.5968 133.12 133.12v585.2672c0 73.5232-59.5968 133.12-133.12 133.12z" fill="#4BE2AC" p-id="17558"></path><path d="M629.3504 326.0416h-325.12c-22.6304 0-40.96-18.3296-40.96-40.96s18.3296-40.96 40.96-40.96h325.12c22.6304 0 40.96 18.3296 40.96 40.96s-18.3296 40.96-40.96 40.96zM629.3504 488.448h-325.12c-22.6304 0-40.96-18.3296-40.96-40.96s18.3296-40.96 40.96-40.96h325.12c22.6304 0 40.96 18.3296 40.96 40.96s-18.3296 40.96-40.96 40.96zM459.9296 650.8544H304.2304c-22.6304 0-40.96-18.3296-40.96-40.96s18.3296-40.96 40.96-40.96h155.6992c22.6304 0 40.96 18.3296 40.96 40.96s-18.3808 40.96-40.96 40.96z" fill="#FFFFFF" p-id="17559"></path><path d="M739.84 742.5024m-189.952 0a189.952 189.952 0 1 0 379.904 0 189.952 189.952 0 1 0-379.904 0Z" fill="#4BE2AC" p-id="17560"></path><path d="M740.096 552.8064c-104.9088 0-189.952 85.0432-189.952 189.952 0 99.9936 77.2608 181.8624 175.36 189.3376 58.368-14.08 101.7856-66.6624 101.7856-129.3824V573.952a189.9008 189.9008 0 0 0-87.1936-21.1456z" fill="#06CC76" p-id="17561"></path><path d="M706.5088 848.9472h-0.7168c-9.728-0.2048-18.9952-4.352-25.6-11.52l-64.8192-70.2464a35.84 35.84 0 0 1 2.048-50.6368 35.84 35.84 0 0 1 50.6368 2.048l39.5264 42.8032 92.8256-92.8256c13.9776-13.9776 36.7104-13.9776 50.688 0s13.9776 36.7104 0 50.688l-119.1936 119.1936a36.1472 36.1472 0 0 1-25.3952 10.496z" fill="#FFFFFF" p-id="17562"></path></svg>