<?xml version="1.0" standalone="no"?><!DOCTYPE svg PUBLIC "-//W3C//DTD SVG 1.1//EN" "http://www.w3.org/Graphics/SVG/1.1/DTD/svg11.dtd"><svg t="1650794341286" class="icon" viewBox="0 0 1024 1024" version="1.1" xmlns="http://www.w3.org/2000/svg" p-id="4599" xmlns:xlink="http://www.w3.org/1999/xlink" width="200" height="200"><defs><style type="text/css">@font-face { font-family: feedback-iconfont; src: url("//at.alicdn.com/t/font_1031158_u69w8yhxdu.woff2?t=1630033759944") format("woff2"), url("//at.alicdn.com/t/font_1031158_u69w8yhxdu.woff?t=1630033759944") format("woff"), url("//at.alicdn.com/t/font_1031158_u69w8yhxdu.ttf?t=1630033759944") format("truetype"); }
</style></defs><path d="M1024 512l-100.937143 103.424-0.731428-0.768L768 770.596571l-103.497143-103.460571L746.422857 585.142857H329.142857v-146.285714h417.28l-81.92-82.029714L768 253.403429l154.331429 155.940571 0.731428-0.804571zM109.714286 182.857143v658.285714a73.142857 73.142857 0 0 0 73.142857 73.142857h365.714286v109.714286H146.285714a146.285714 146.285714 0 0 1-146.285714-146.285714V146.285714a146.285714 146.285714 0 0 1 146.285714-146.285714h402.285715v109.714286H182.857143a73.142857 73.142857 0 0 0-73.142857 73.142857z" p-id="4600"></path></svg>