<?xml version="1.0" standalone="no"?><!DOCTYPE svg PUBLIC "-//W3C//DTD SVG 1.1//EN" "http://www.w3.org/Graphics/SVG/1.1/DTD/svg11.dtd"><svg t="1650873321788" class="icon" viewBox="0 0 1024 1024" version="1.1" xmlns="http://www.w3.org/2000/svg" p-id="3078" xmlns:xlink="http://www.w3.org/1999/xlink" width="200" height="200"><defs><style type="text/css">@font-face { font-family: feedback-iconfont; src: url("//at.alicdn.com/t/font_1031158_u69w8yhxdu.woff2?t=1630033759944") format("woff2"), url("//at.alicdn.com/t/font_1031158_u69w8yhxdu.woff?t=1630033759944") format("woff"), url("//at.alicdn.com/t/font_1031158_u69w8yhxdu.ttf?t=1630033759944") format("truetype"); }
</style></defs><path d="M705.8 192.7m-91.6 0a91.6 91.6 0 1 0 183.2 0 91.6 91.6 0 1 0-183.2 0Z" fill="#C0C3C6" p-id="3079"></path><path d="M359.7 498.1m-91.6 0a91.6 91.6 0 1 0 183.2 0 91.6 91.6 0 1 0-183.2 0Z" fill="#C0C3C6" p-id="3080"></path><path d="M705.8 844.3m-91.6 0a91.6 91.6 0 1 0 183.2 0 91.6 91.6 0 1 0-183.2 0Z" fill="#C0C3C6" p-id="3081"></path><path d="M705.8 304.7c-61.7 0-112-50.2-112-112s50.2-112 112-112 112 50.2 112 112-50.2 112-112 112z m0-183.3c-39.3 0-71.3 32-71.3 71.3s32 71.3 71.3 71.3 71.3-32 71.3-71.3-32-71.3-71.3-71.3zM359.7 610.1c-61.7 0-112-50.2-112-112s50.2-112 112-112 112 50.2 112 112-50.3 112-112 112z m0-183.3c-39.3 0-71.3 32-71.3 71.3s32 71.3 71.3 71.3 71.3-32 71.3-71.3-32-71.3-71.3-71.3zM705.8 956.2c-61.7 0-112-50.2-112-112s50.2-112 112-112 112 50.2 112 112-50.2 112-112 112z m0-183.2c-39.3 0-71.3 32-71.3 71.3s32 71.3 71.3 71.3 71.3-32 71.3-71.3-32-71.3-71.3-71.3z" fill="#2E3742" p-id="3082"></path><path d="M940 864.6H802.2c-11.3 0-20.4-9.1-20.4-20.4s9.1-20.4 20.4-20.4H940c11.3 0 20.4 9.1 20.4 20.4s-9.2 20.4-20.4 20.4zM601.4 864.6H84.8c-11.3 0-20.4-9.1-20.4-20.4s9.1-20.4 20.4-20.4h516.6c11.3 0 20.4 9.1 20.4 20.4s-9.2 20.4-20.4 20.4zM940 518.5H455.1c-11.3 0-20.4-9.1-20.4-20.4s9.1-20.4 20.4-20.4H940c11.3 0 20.4 9.1 20.4 20.4s-9.2 20.4-20.4 20.4zM262.5 518.5H84.8c-11.3 0-20.4-9.1-20.4-20.4s9.1-20.4 20.4-20.4h177.7c11.3 0 20.4 9.1 20.4 20.4s-9.1 20.4-20.4 20.4zM940 213H815.1c-11.3 0-20.4-9.1-20.4-20.4 0-11.3 9.1-20.4 20.4-20.4H940c11.3 0 20.4 9.1 20.4 20.4 0 11.3-9.2 20.4-20.4 20.4zM609.1 213H84.8c-11.3 0-20.4-9.1-20.4-20.4 0-11.3 9.1-20.4 20.4-20.4h524.3c11.3 0 20.4 9.1 20.4 20.4-0.1 11.3-9.2 20.4-20.4 20.4z" fill="#2E3742" p-id="3083"></path></svg>